<?xml version="1.0" encoding="utf-8"?>
<!-- Generator: Adobe Illustrator 15.1.0, SVG Export Plug-In . SVG Version: 6.00 Build 0)  -->
<!DOCTYPE svg PUBLIC "-//W3C//DTD SVG 1.1//EN" "http://www.w3.org/Graphics/SVG/1.1/DTD/svg11.dtd">
<svg version="1.1" id="Layer_1" xmlns="http://www.w3.org/2000/svg" xmlns:xlink="http://www.w3.org/1999/xlink" x="0px" y="0px"
	 width="160px" height="100px" viewBox="0 0 160 100" enable-background="new 0 0 160 100" xml:space="preserve">
<polygon fill="#B9B9BA" points="15.91,93.576 26.41,66.624 29.735,69.774 49.509,49.824 29.91,30.225 26.41,33.199 15.559,6.426 
	128.317,6.425 139.292,17.585 139.292,83.479 129.317,93.575 15.909,93.576 "/>
<g>
	<path fill="#C29FEE" d="M72.75,84.209c-16.32-17.456-16.305-48.803,0.03-66.998h49.544c-14.256,19.11-14.289,48.423-0.112,66.998
		H72.75z"/>
	<path fill="#FFFFFF" d="M117.631,19.711c-11.258,18.469-11.307,43.908-0.157,61.998H73.859
		c-6.784-7.714-10.69-18.672-10.782-30.415c-0.094-11.943,3.836-23.326,10.84-31.583H117.631 M127.683,14.711H71.685
		c-18.56,19.663-17.727,53.996,0,71.998h55.998C109.956,68.707,109.123,34.374,127.683,14.711L127.683,14.711z"/>
</g>
</svg>
