<?xml version="1.0" encoding="utf-8"?>
<!-- Generator: Adobe Illustrator 15.1.0, SVG Export Plug-In . SVG Version: 6.00 Build 0)  -->
<!DOCTYPE svg PUBLIC "-//W3C//DTD SVG 1.1//EN" "http://www.w3.org/Graphics/SVG/1.1/DTD/svg11.dtd">
<svg version="1.1" id="Layer_1" xmlns="http://www.w3.org/2000/svg" xmlns:xlink="http://www.w3.org/1999/xlink" x="0px" y="0px"
	 width="160px" height="100px" viewBox="0 0 160 100" enable-background="new 0 0 160 100" xml:space="preserve">
<g>
	<path fill="#BBBBBB" d="M4.559,6.426L14.59,31.178c1.297-0.275,2.639-0.427,4.018-0.427c10.628,0,19.248,8.618,19.248,19.249
		c0,10.63-8.619,19.249-19.248,19.249c-1.391,0-2.745-0.155-4.052-0.436L4.909,93.576h117.946l19.427-43.051l-19.249-44.1H4.559"/>
</g>
<circle fill="#FFFFFF" stroke="#CCCBCB" stroke-width="4" stroke-miterlimit="10" cx="142.107" cy="50" r="13.999"/>
<g>
	<rect x="49.36" y="17.969" fill="#79A0E2" width="63.397" height="63.398"/>
	<g>
		<path fill="#FFFFFF" d="M110.258,20.469v58.398H51.86V20.469H110.258 M115.258,15.469H46.86v68.398h68.397V15.469L115.258,15.469z
			"/>
	</g>
</g>
</svg>
