<svg width="1303" height="338" viewBox="0 0 1303 338" fill="none" xmlns="http://www.w3.org/2000/svg">
<path d="M441.8 99.8301C438.44 92.0101 433.17 85.6901 426.12 81.0601C419.08 76.4401 410.94 74.0901 401.91 74.0901C392.88 74.0901 384.94 76.1501 377.51 80.2101C373.58 82.3401 369.8 85.0801 366.22 88.4001V76.8801H342.53V194.84H366.22V150.27C366.22 133.1 367.22 125.43 368.06 122.07C369.9 114.9 373.79 108.79 379.63 103.91C385.36 99.1301 391.92 96.7001 399.13 96.7001C405.33 96.7001 410.34 98.1701 414 101.07C417.65 103.95 420.2 108.47 421.57 114.56C422.21 117.17 422.97 123.4 422.97 138.37V194.86H446.66V134.29C446.66 118.98 445.01 107.38 441.79 99.8501" fill="#ffffff"/>
<path d="M643.2 110.82C643.88 110.19 644.4 109.73 644.69 109.42C651.82 102.29 660.66 98.8 671.71 98.75H671.9C681.82 98.75 690.45 102.54 698.27 110.37L698.6 110.67C698.83 110.85 699.22 111.24 699.76 111.78C706.29 118.21 709.47 126.42 709.47 136.91C709.47 147.4 705.86 155.97 698.4 163.42C690.94 170.86 682.2 174.51 671.42 174.57C660.18 174.57 651.44 171.38 644.66 164.81C641.16 161.42 638.28 156.98 636.1 151.63C634.04 146.54 633.01 141.62 633.07 136.94C633.12 126.13 636.48 117.57 643.21 110.83L643.2 110.82ZM714.43 94.14C702.58 82.3 688.17 76.3 671.62 76.3C657.68 76.3 645.04 80.81 633.94 89.71V77.25H611.13V283.58H633.94V184.14C644.53 192.69 657.18 197.02 671.62 197.02C679.73 197.02 687.55 195.5 694.88 192.52C706.08 187.99 715.2 180.55 722.02 170.41C728.83 160.29 732.29 149.01 732.29 136.91C732.29 120.37 726.29 105.98 714.43 94.14Z" fill="#ffffff"/>
<path d="M292.86 124.06C283.06 119.02 279.19 115.73 277.63 113.81C275.69 111.5 274.79 109.31 274.79 106.92C274.79 104.3 275.82 102.11 278.06 100.06C280.4 97.8901 283.03 96.8801 286.35 96.8801C292.12 96.8801 298.32 100.07 304.8 106.34L308.3 109.75L324.05 93.4601L320.54 90.0701C309.55 79.4601 298.29 74.0901 287.06 74.0901C277.21 74.0901 268.92 77.2901 262.4 83.6201C255.82 90.0001 252.49 98.0601 252.49 107.62C252.49 114.93 254.59 121.54 258.7 127.26C262.63 132.77 269.94 138.29 280.37 143.69C290.94 149.08 294.92 152.28 296.36 153.99C298.25 156.27 299.12 158.66 299.12 161.51C299.12 164.99 297.76 167.86 294.84 170.55C291.86 173.26 288.17 174.64 283.87 174.64C277.39 174.64 271 171.14 264.88 164.24L261.22 160.13L246.15 177.24L248.63 180.43C252.81 185.79 258.13 190.05 264.47 193.08C270.81 196.1 277.53 197.63 284.46 197.63C295.12 197.63 304.14 194.04 311.29 186.97C318.48 179.89 322.1 171.12 322.1 160.93C322.1 153.62 319.94 146.93 315.66 141C311.51 135.45 303.83 129.75 292.85 124.07" fill="#ffffff"/>
<path d="M565.22 136.84C565.22 144.15 563.59 150.8 560.34 156.6C557.14 162.32 552.46 166.94 546.47 170.32C534.6 176.99 519.85 177.02 508.48 170.32C502.67 166.9 497.96 162.05 494.51 155.9C491.04 149.73 489.28 143.17 489.28 136.44C489.28 129.71 491.03 123.1 494.46 116.99C497.89 110.9 502.55 106.11 508.31 102.77C514.09 99.41 520.48 97.72 527.31 97.72C537.94 97.72 547.02 101.47 554.27 108.87C561.55 116.3 565.24 125.71 565.24 136.86L565.22 136.84ZM564.35 77.31V89.15C560.69 85.77 556.75 82.97 552.56 80.76C544.68 76.63 535.81 74.54 526.17 74.54C509.52 74.54 495.06 80.62 483.22 92.6C471.39 104.57 465.4 119.17 465.4 136.01C465.4 152.85 471.34 167.93 483.05 179.94C494.79 191.96 509.16 198.07 525.77 198.07C535.1 198.07 543.84 196.1 551.75 192.21C556.17 190.02 560.39 187.21 564.35 183.8V195.28H587.84V77.3H564.35V77.31Z" fill="#ffffff"/>
<path d="M775.48 170.31V0H751.54V193.28H828.3V170.31H775.48Z" fill="#ffffff"/>
<path d="M1248.39 161.92L1245.91 164.4C1238.43 171.87 1229.61 175.51 1218.93 175.51C1208.25 175.51 1199.4 172.04 1192.53 164.9C1185.6 157.7 1182.25 148.88 1182.25 137.9C1182.25 126.92 1185.39 117.96 1191.57 111.69C1192.25 111.15 1192.74 110.67 1192.91 110.44C1199.92 103.5 1208.44 100.13 1218.94 100.13C1229.44 100.13 1238.25 103.61 1245.49 110.81L1248.02 113.32L1263.69 97.0199L1261.14 94.5899C1249.36 83.3699 1235.2 77.6699 1219.01 77.6699C1202.82 77.6699 1188.07 83.5799 1176.41 95.2399C1164.75 106.91 1158.84 121.25 1158.84 137.86C1158.84 154.47 1164.69 169 1176.25 180.54C1187.79 192.1 1202.17 197.95 1218.94 197.95C1235.71 197.95 1250.01 192.11 1262.01 180.61L1264.61 178.12L1248.41 161.92H1248.39Z" fill="#ffffff"/>
<path d="M1063.18 305.78C1055.99 312.97 1047.75 316.45 1038.02 316.45C1028.29 316.45 1019.59 312.49 1011.47 304.31C1004.28 297.14 1000.8 288.5 1000.8 277.85C1000.8 267.2 1004.3 258 1011.47 250.79L1012.25 250.01C1019.47 242.77 1027.91 239.25 1038.01 239.25C1048.11 239.25 1056.69 243.03 1064.47 250.79C1071.35 257.68 1074.7 266.54 1074.7 277.85C1074.7 289.16 1070.92 298.01 1063.17 305.77L1063.18 305.78ZM1000.8 137.97C1000.8 126.98 1004.3 118.12 1011.47 110.91L1012.25 110.13C1019.47 102.89 1027.91 99.37 1038.01 99.37C1048.11 99.37 1056.7 103.15 1064.47 110.91C1071.35 117.79 1074.7 126.64 1074.7 137.97C1074.7 149.3 1070.92 158.13 1063.17 165.89C1055.98 173.06 1047.74 176.56 1038.01 176.56C1028.28 176.56 1019.58 172.59 1011.46 164.41C1004.27 157.25 1000.79 148.59 1000.79 137.97H1000.8ZM923.44 165.78C916.25 172.97 908.03 176.45 898.28 176.45C888.53 176.45 879.85 172.48 871.75 164.31C864.56 157.12 861.08 148.47 861.08 137.85C861.08 127.23 864.58 118.01 871.75 110.79L872.53 110.01C879.75 102.77 888.17 99.26 898.28 99.26C908.39 99.26 916.97 103.03 924.75 110.79C931.63 117.67 934.97 126.52 934.97 137.85C934.97 149.18 931.2 158.02 923.44 165.77V165.78ZM1049.41 218.22V197.03C1061.17 194.92 1071.66 189.46 1080.66 180.69C1092.17 169.48 1098 155.1 1098 137.97C1098.06 120.78 1092.23 106.22 1080.65 94.69C1069.07 83.17 1054.75 77.34 1038.09 77.34C1021.43 77.34 1006.93 83.3 995.19 95.05C986.32 103.91 980.77 114.28 978.56 126.02H957.32C955.22 113.9 949.75 103.36 940.93 94.58C929.35 83.07 915.04 77.23 898.38 77.23C881.72 77.23 867.22 83.19 855.47 94.94C843.72 106.7 837.74 121.14 837.74 137.85C837.74 145.67 839.23 153.39 842.16 160.8C845.28 168.76 849.65 175.43 855.14 180.61C867.3 192.12 881.83 197.95 898.28 197.95C914.73 197.95 929.12 192.1 940.95 180.57C949.78 171.97 955.23 161.51 957.31 149.37H978.53C979.28 153.28 980.38 157.13 981.87 160.91C984.99 168.88 989.36 175.55 994.85 180.72C1003.98 189.36 1014.44 194.8 1026.05 196.97V218.34C1014.35 220.55 1004 226.12 995.17 234.94C983.41 246.7 977.44 261.15 977.44 277.85C977.44 285.64 978.93 293.37 981.86 300.8C985 308.8 989.37 315.46 994.84 320.61C1007.01 332.12 1021.53 337.95 1037.98 337.95C1054.43 337.95 1068.81 332.1 1080.63 320.58C1092.14 309.37 1097.97 295 1097.97 277.86C1098.03 260.66 1092.2 246.11 1080.62 234.59C1071.76 225.77 1061.27 220.31 1049.38 218.23" fill="#ffffff"/>
<path d="M1140.74 80.53H1116.11V193.27H1140.74V80.53Z" fill="#ffffff"/>
<path d="M1128.37 71.47C1132.8 71.47 1136.82 69.8 1139.94 66.66C1143.13 63.46 1144.75 59.59 1144.75 55.15C1144.75 50.71 1143.08 46.68 1139.95 43.54C1136.86 40.44 1132.76 38.74 1128.41 38.74C1124.06 38.74 1119.98 40.45 1116.9 43.54C1113.76 46.68 1112.1 50.69 1112.1 55.15C1112.1 59.61 1113.71 63.45 1116.9 66.66C1120.04 69.8 1124 71.47 1128.37 71.47Z" fill="#ffffff"/>
<path d="M1288.43 82.05C1295.99 82.05 1302.15 88.21 1302.15 95.77C1302.15 103.33 1295.99 109.49 1288.43 109.49C1280.87 109.49 1274.71 103.37 1274.71 95.77C1274.71 88.17 1280.83 82.05 1288.43 82.05ZM1288.43 108.09C1295.2 108.09 1300.71 102.61 1300.71 95.77C1300.71 88.93 1295.19 83.49 1288.43 83.49C1281.67 83.49 1276.11 89.01 1276.11 95.77C1276.11 102.53 1281.59 108.09 1288.43 108.09ZM1290.58 96.98L1294.13 102.16C1294.32 102.58 1294.13 102.69 1293.71 102.69H1292.16C1291.82 102.69 1291.63 102.58 1291.4 102.31L1287.96 97.21H1285.96V102.31C1285.96 102.61 1285.85 102.69 1285.51 102.69H1283.88C1283.5 102.69 1283.39 102.61 1283.39 102.31V89.23C1283.39 88.93 1283.54 88.85 1283.88 88.85H1288.68C1290.99 88.85 1293.59 89.76 1293.59 93.01C1293.59 95.28 1292.19 96.53 1290.57 96.98H1290.58ZM1288.65 95.09C1290.31 95.09 1291.14 94.37 1291.14 93.01C1291.14 91.54 1290.27 90.97 1288.61 90.97H1285.96V95.09H1288.64H1288.65Z" fill="#ffffff"/>
<path d="M95.5 227.96C148.243 227.96 191 185.203 191 132.46C191 79.7168 148.243 36.96 95.5 36.96C42.7568 36.96 0 79.7168 0 132.46C0 185.203 42.7568 227.96 95.5 227.96Z" fill="#ffffff"/>
<path d="M131.62 170.07C128.9 172.79 125.79 174.15 122.03 174.15C118.27 174.15 115 172.63 111.96 169.51C109.24 166.79 107.88 163.52 107.88 159.44C107.88 155.36 109.24 151.85 111.96 149.13L112.28 148.81C115 146.09 118.27 144.73 122.11 144.73C125.95 144.73 129.22 146.17 132.18 149.13C134.82 151.77 136.1 155.12 136.1 159.44C136.02 163.68 134.58 167.11 131.62 170.07ZM107.88 106.21C107.88 102.05 109.24 98.62 111.96 95.9L112.28 95.58C115 92.86 118.27 91.5 122.11 91.5C125.95 91.5 129.22 92.94 132.18 95.9C134.82 98.54 136.1 101.89 136.1 106.21C136.1 110.53 134.66 113.88 131.7 116.84C128.98 119.56 125.87 120.92 122.11 120.92C118.35 120.92 115.08 119.4 112.04 116.28C109.16 113.48 107.88 110.21 107.88 106.21ZM78.3901 116.76C75.6701 119.48 72.5601 120.84 68.8001 120.84C65.0401 120.84 61.7701 119.32 58.7301 116.2C56.0101 113.48 54.6501 110.21 54.6501 106.13C54.6501 102.05 56.0101 98.62 58.7301 95.82L59.0501 95.5C61.7701 92.78 65.0401 91.42 68.8801 91.42C72.7201 91.42 75.9901 92.86 78.9501 95.82C81.5901 98.46 82.8701 101.81 82.8701 106.13C82.7901 110.37 81.3501 113.8 78.3901 116.76ZM126.34 136.74V128.67C130.82 127.87 134.81 125.79 138.25 122.44C142.65 118.2 144.88 112.69 144.88 106.14C144.88 99.59 142.72 94.07 138.25 89.68C133.85 85.28 128.42 83.05 122.03 83.05C115.64 83.05 110.2 85.29 105.73 89.76C102.37 93.12 100.22 97.11 99.4201 101.59H91.3501C90.5501 96.95 88.4701 92.96 85.1201 89.6C80.7201 85.2 75.2901 82.97 68.9001 82.97C62.5101 82.97 57.0701 85.21 52.6001 89.68C48.1201 94.16 45.8901 99.67 45.8901 105.98C45.8901 108.94 46.4501 111.89 47.5701 114.69C48.7701 117.73 50.4501 120.28 52.5301 122.2C57.1701 126.6 62.6801 128.83 68.9901 128.83C75.3001 128.83 80.7401 126.59 85.2101 122.2C88.5701 118.92 90.6401 114.93 91.4401 110.29H99.5101C99.8301 111.81 100.23 113.25 100.79 114.69C101.99 117.73 103.67 120.28 105.75 122.2C109.19 125.48 113.18 127.55 117.66 128.35V136.5C113.18 137.38 109.27 139.46 105.91 142.81C101.43 147.29 99.2001 152.8 99.2001 159.11C99.2001 162.07 99.7601 165.02 100.88 167.82C102.08 170.86 103.76 173.41 105.84 175.33C110.48 179.73 115.99 181.96 122.3 181.96C128.61 181.96 134.05 179.72 138.52 175.33C142.92 171.09 145.15 165.58 145.15 159.03C145.15 152.48 142.99 146.96 138.52 142.57C134.92 139.61 130.93 137.53 126.37 136.74" fill="#00379A"/>
</svg>
